<svg width="25" height="25" viewBox="0 0 25 25" fill="none" xmlns="http://www.w3.org/2000/svg">
<path d="M16.75 4.5H18.75C19.2804 4.5 19.7891 4.71071 20.1642 5.08579C20.5393 5.46086 20.75 5.96957 20.75 6.5V20.5C20.75 21.0304 20.5393 21.5391 20.1642 21.9142C19.7891 22.2893 19.2804 22.5 18.75 22.5H6.75C6.21957 22.5 5.71086 22.2893 5.33579 21.9142C4.96071 21.5391 4.75 21.0304 4.75 20.5V6.5C4.75 5.96957 4.96071 5.46086 5.33579 5.08579C5.71086 4.71071 6.21957 4.5 6.75 4.5H8.75" stroke="black" stroke-linecap="round" stroke-linejoin="round"/>
<path d="M15.75 2.5H9.75C9.19772 2.5 8.75 2.94772 8.75 3.5V5.5C8.75 6.05228 9.19772 6.5 9.75 6.5H15.75C16.3023 6.5 16.75 6.05228 16.75 5.5V3.5C16.75 2.94772 16.3023 2.5 15.75 2.5Z" stroke="black" stroke-linecap="round" stroke-linejoin="round"/>
</svg>
