<?xml version="1.0" encoding="utf-8"?><!-- Generator: Adobe Illustrator 25.4.0, SVG Export Plug-In . SVG Version: 6.00 Build 0)  -->
<svg version="1.1" id="Layer_1" xmlns="http://www.w3.org/2000/svg"
    xmlns:xlink="http://www.w3.org/1999/xlink" x="0px" y="0px" viewBox="0 0 1000 272.2"
    style="enable-background:new 0 0 1000 272.2;" xml:space="preserve">
	<defs>

<style type="text/css">
	.st0{fill:#685BA3;}
	.st1{fill:#FDC715;}
</style>
	</defs>
    <g>
	<g>
		
			<ellipse fill="#685BA3" transform="matrix(0.6757 -0.7372 0.7372 0.6757 79.9608 449.2137)" class="st0"
                cx="550.6" cy="133.7" rx="131.4" ry="100.1" />
	</g>
        <g>
		<polygon fill="#FDC715" class="st1" points="455.5,71.1 455.5,118.1 715.8,118.1 715.8,66.8 		" />
	</g>
        <g>
		<polygon fill="#FDC715" class="st1" points="468.6,134.7 468.6,181.7 944.3,181.7 944.3,130.4 		" />
	</g>
        <g>
		<polygon fill="#FDC715" class="st1" points="462.8,198.4 462.8,245.4 938.5,245.4 938.5,194 		" />
	</g>
        <g>
		<polygon fill="#000000" points="527,72.9 527,113 520.3,113 520.3,79.6 503.8,113 496.3,113 479.8,79.6 479.8,113 473.1,113 473.1,72.9
			483.9,72.9 500.1,106.3 516.2,72.9 		" />
            <path fill="#000000" d="M536,72.9h7.1V113H536V72.9z" />
            <path fill="#000000" d="M594.3,97.1c-0.4,3.3-1.5,6.2-3.4,8.7c-1.9,2.5-4.5,4.5-7.6,5.9c-3.1,1.4-6.7,2.1-10.7,2.1c-4.5,0-8.4-0.9-11.8-2.6
			c-3.4-1.7-6-4.2-7.9-7.3c-1.9-3.1-2.8-6.7-2.8-10.9c0-4.1,0.9-7.8,2.8-10.9c1.9-3.1,4.5-5.5,7.9-7.3c3.4-1.7,7.3-2.6,11.8-2.6
			c4,0,7.6,0.7,10.7,2.1c3.1,1.4,5.7,3.3,7.6,5.8c1.9,2.5,3.1,5.4,3.4,8.7h-7.1c-0.4-2.1-1.2-4-2.5-5.5c-1.3-1.5-3-2.7-5-3.6
			c-2.1-0.8-4.5-1.3-7.2-1.3c-3.1,0-5.9,0.6-8.1,1.8c-2.3,1.2-4.1,2.9-5.3,5c-1.2,2.2-1.9,4.7-1.9,7.7c0,3,0.6,5.5,1.9,7.7
			c1.2,2.2,3,3.8,5.3,5c2.3,1.2,5,1.8,8.1,1.8c2.7,0,5.1-0.4,7.2-1.2c2.1-0.8,3.7-2,5-3.6c1.3-1.5,2.1-3.4,2.5-5.5H594.3z" />
            <polygon fill="#000000" points="646.8,106.7 646.8,121.2 640.3,121.2 640.3,113 600.8,113 600.8,72.9 607.8,72.9 607.8,106.7 632.8,106.7
			632.8,72.9 639.8,72.9 639.8,106.7 		" />
            <polygon fill="#000000" points="686.2,106.9 686.2,113 651.3,113 654.5,92.9 651.3,72.9 685.9,72.9 685.9,79 659.1,79 660.8,90 684.7,90
			684.7,95.9 660.8,95.9 659.1,106.9 		" />
            <path fill="#000000" d="M700.4,109.2c0,0.8-0.2,1.7-0.5,2.6c-0.4,0.9-1,2.1-1.9,3.6l-2.9,5h-3.9l3.4-7.3c-0.3-0.1-0.5-0.2-0.8-0.4
			c-0.7-0.4-1.2-0.9-1.6-1.6c-0.4-0.7-0.6-1.4-0.6-2.2c0-0.8,0.2-1.5,0.6-2.2c0.4-0.6,0.9-1.2,1.6-1.5c0.6-0.4,1.4-0.6,2.2-0.6
			c0.9,0,1.6,0.2,2.3,0.6c0.7,0.4,1.2,0.9,1.6,1.6C700.2,107.5,700.4,108.3,700.4,109.2z" />
            <path fill="#000000" d="M514.2,170.9V137h-36c0.2,2.4,0.4,4.7,0.5,7.1c0.1,2.4,0.2,4.6,0.2,6.8c0,5-0.4,9.2-1.2,12.5c-0.7,3.2-1.9,5.8-3.5,7.5h-5
			v14.4h6.6v-8.2h38.7v8.2h6.6v-14.4H514.2z M484.6,163.7c0.6-3.2,1-7,1-11.5c0-1.7,0-3.5-0.1-5.4c0-1.2-0.1-2.4-0.2-3.6h21.9V171
			h-25.4C483,169.3,483.9,166.9,484.6,163.7z" />
            <polygon points="560.6,171 560.6,177.1 525.7,177.1 528.9,157 525.7,137 560.4,137 560.4,143.1 533.5,143.1 535.3,154.1
			559.1,154.1 559.1,160 535.3,160 533.5,171 		" />
            <polygon
                points="616.9,137 616.9,143.2 600.3,143.2 600.3,177.1 593.2,177.1 593.2,143.2 576.7,143.2 576.7,137 		" />
            <path fill="#000000" d="M656.3,143.1c-1.2-1.9-2.9-3.4-5.1-4.5c-2.2-1.1-4.8-1.6-7.8-1.6h-21.2v40.1h7.1v-14.8h14.2c3,0,5.6-0.5,7.8-1.6
			c2.2-1.1,3.9-2.6,5.1-4.5c1.2-1.9,1.8-4.1,1.8-6.6C658,147.2,657.4,145,656.3,143.1z M648.8,154.5c-1.4,1.2-3.3,1.8-5.7,1.8h-13.9
			v-13.1h13.9c2.4,0,4.3,0.6,5.7,1.8c1.4,1.2,2.1,2.8,2.1,4.8S650.2,153.3,648.8,154.5z" />
            <polygon points="697.4,171 697.4,177.1 662.4,177.1 665.6,157 662.4,137 697.1,137 697.1,143.1 670.3,143.1 672,154.1
			695.8,154.1 695.8,160 672,160 670.3,171 		" />
            <polygon points="744.4,137 744.4,177.1 737.3,177.1 737.3,160 711.8,160 711.8,177.1 704.7,177.1 704.7,137 711.8,137
			711.8,153.8 737.3,153.8 737.3,137 		" />
            <polygon
                points="793.8,137 770.4,177.1 762.7,177.1 767.8,168.2 749.5,137 757.3,137 771.8,161.6 786.1,137 		" />
            <path d="M855.1,146.2c-1.9-3.1-4.6-5.5-8-7.3c-3.4-1.7-7.4-2.6-11.9-2.6c-4.5,0-8.5,0.9-11.9,2.6s-6.1,4.2-7.9,7.3
			c-1.4,2.3-2.2,4.8-2.6,7.6h-7.1V137h-7.1v40.1h7.1V160h7c0.3,2.9,1.2,5.6,2.7,7.9c1.9,3.1,4.5,5.6,7.9,7.3
			c3.4,1.7,7.4,2.6,11.9,2.6c4.5,0,8.5-0.9,11.9-2.6c3.4-1.7,6.1-4.2,8-7.3c1.9-3.1,2.9-6.7,2.9-10.9
			C857.9,152.9,857,149.3,855.1,146.2z M848.9,164.7c-1.3,2.2-3.1,3.8-5.4,5c-2.3,1.2-5.1,1.8-8.3,1.8c-3.2,0-5.9-0.6-8.3-1.8
			c-2.3-1.2-4.1-2.8-5.4-5c-1.3-2.2-1.9-4.7-1.9-7.6c0-3,0.6-5.5,1.9-7.7c1.3-2.2,3.1-3.8,5.4-5c2.3-1.2,5.1-1.8,8.3-1.8
			c3.2,0,6,0.6,8.3,1.8c2.3,1.2,4.1,2.9,5.4,5c1.3,2.2,1.9,4.7,1.9,7.7C850.8,160,850.1,162.5,848.9,164.7z" />
            <polygon
                points="899.3,137 899.3,143.2 882.7,143.2 882.7,177.1 875.7,177.1 875.7,143.2 859.1,143.2 859.1,137 		" />
            <path d="M938.6,157.8c-1.2-1.9-2.9-3.4-5.1-4.5c-2.2-1.1-4.8-1.6-7.9-1.6h-13.9V137h-7.1v40.1h21c3,0,5.6-0.5,7.9-1.6
			c2.2-1.1,3.9-2.5,5.1-4.5c1.2-1.9,1.8-4.1,1.8-6.6C940.4,161.9,939.8,159.7,938.6,157.8z M931.1,169.5c-1.4,1.3-3.4,1.9-5.8,1.9
			h-13.6v-13.9h13.6c2.5,0,4.4,0.6,5.8,1.9c1.4,1.3,2.1,3,2.1,5.1C933.3,166.5,932.6,168.2,931.1,169.5z" />
            <polygon
                points="512.6,201.1 512.6,241.2 505.6,241.2 505.6,207.4 480.2,207.4 480.2,241.2 473.1,241.2 473.1,201.1 		" />
            <polygon points="555.1,235.1 555.1,241.2 520.1,241.2 523.3,221.2 520.1,201.1 554.8,201.1 554.8,207.2 528,207.2 529.7,218.2
			553.5,218.2 553.5,224.1 529.7,224.1 528,235.1 		" />
            <path d="M596.5,207.2c-1.2-1.9-2.9-3.4-5.1-4.5c-2.2-1.1-4.8-1.6-7.8-1.6h-21.2v40.1h7.1v-14.8h14.2c3,0,5.6-0.5,7.8-1.6
			c2.2-1.1,3.9-2.6,5.1-4.5c1.2-1.9,1.8-4.1,1.8-6.6C598.3,211.3,597.7,209.1,596.5,207.2z M589.1,218.6c-1.4,1.2-3.3,1.8-5.7,1.8
			h-13.9v-13.1h13.9c2.4,0,4.3,0.6,5.7,1.8c1.4,1.2,2.1,2.8,2.1,4.8S590.5,217.4,589.1,218.6z" />
            <polygon points="637.6,235.1 637.6,241.2 602.7,241.2 605.9,221.2 602.7,201.1 637.4,201.1 637.4,207.2 610.5,207.2 612.3,218.2
			636.1,218.2 636.1,224.1 612.3,224.1 610.5,235.1 		" />
            <polygon points="698.9,201.1 698.9,241.2 692.2,241.2 692.2,207.8 675.7,241.2 668.2,241.2 651.7,207.8 651.7,241.2 645,241.2
			645,201.1 655.8,201.1 672,234.5 688.1,201.1 		" />
            <path d="M728.7,241.9c-4.6,0-8.6-0.9-12-2.6c-3.5-1.7-6.1-4.2-8.1-7.3c-1.9-3.1-2.9-6.7-2.9-10.9c0-4.1,1-7.8,2.9-10.9
			c1.9-3.1,4.6-5.5,8.1-7.3c3.5-1.7,7.5-2.6,12-2.6c4.6,0,8.6,0.9,12,2.6c3.5,1.7,6.1,4.2,8.1,7.3c1.9,3.1,2.9,6.7,2.9,10.9
			c0,4.1-1,7.8-2.9,10.9c-1.9,3.1-4.6,5.5-8.1,7.3C737.3,241.1,733.3,241.9,728.7,241.9z M728.7,235.6c3.2,0,6-0.6,8.4-1.8
			c2.4-1.2,4.2-2.9,5.5-5c1.3-2.2,1.9-4.7,1.9-7.7s-0.7-5.5-1.9-7.7c-1.3-2.2-3.1-3.8-5.5-5c-2.4-1.2-5.1-1.8-8.4-1.8
			c-3.2,0-6,0.6-8.4,1.8c-2.4,1.2-4.2,2.9-5.5,5c-1.3,2.2-1.9,4.7-1.9,7.7s0.6,5.5,1.9,7.7c1.3,2.2,3.1,3.8,5.5,5
			C722.7,235.1,725.5,235.6,728.7,235.6z" />
            <polygon points="824.3,241.2 816.2,241.2 805.1,223.6 790.5,241.2 785.4,241.2 770.8,223.6 759.7,241.2 751.6,241.2 766.3,218.1
			752.2,201.1 759.8,201.1 784.5,231.3 784.5,201.1 791.4,201.1 791.4,231.3 816,201.1 823.7,201.1 809.6,218.1 		" />
            <polygon points="875,235 875,249.4 868.5,249.4 868.5,241.2 829,241.2 829,201.1 836,201.1 836,235 861,235 861,201.1 868,201.1
			868,235 		" />
            <path d="M880.9,201.1h7.1v40.1h-7.1V201.1z" />
            <path d="M934.1,225c-0.9-1.6-2.4-2.8-4.4-3.7c-1-0.4-2.1-0.8-3.3-1c0.6-0.2,1.1-0.5,1.6-0.8c1.7-1,2.9-2.3,3.7-3.8
			c0.8-1.5,1.2-3.1,1.2-4.7c0-3-1-5.4-3-7.1c-2-1.7-4.9-2.6-8.6-2.6h-25.7l3.1,19.5l-3.1,20.6h26.7c2.9,0,5.4-0.5,7.3-1.4
			c2-0.9,3.5-2.2,4.5-3.9c1-1.6,1.5-3.5,1.5-5.7C935.5,228.3,935,226.5,934.1,225z M919.7,206.8c1.9,0,3.5,0.5,4.5,1.4
			c1,0.9,1.6,2.2,1.6,3.6c0,1.9-0.6,3.5-1.9,4.5c-1.3,1.1-2.8,1.6-4.7,1.6H905l-1.8-11.1H919.7z M926.6,234c-1.2,1-3,1.5-5.2,1.5
			h-18.2l1.9-12.2h14.8c2.8,0,4.9,0.6,6.4,1.7c1.4,1.1,2.2,2.7,2.2,4.6C928.4,231.5,927.8,233,926.6,234z" />
	</g>
        <g>
		<path d="M176,187.2c0,10.5-3,19.9-8.9,28c-5.9,8.1-14.2,14.6-25,19.3c-10.7,4.7-23.5,7.1-38.3,7.1c-14.8,0-27.5-2.2-38.4-6.5
			c-10.8-4.4-19.4-10.3-25.6-17.8c-6.3-7.5-10.1-15.9-11.5-25.2h28c2,8.3,7,14.8,15.2,19.6c8.1,4.8,18.9,7.2,32.3,7.2
			c9,0,16.8-1.3,23.3-3.9c6.5-2.6,11.6-6.3,15.3-11c3.7-4.7,5.5-10.3,5.5-16.8c0-6.3-1.5-11.8-4.5-16.6c-3-4.7-7.6-8.4-13.7-11
			c-6.1-2.6-13.9-3.9-23.3-3.9c-7.7,0-14.6,0.9-20.8,2.7c-6.1,1.8-11.4,4.2-15.8,7c-4.4,2.8-8.1,5.8-11.1,8.9H35.6l12.2-93.8h115.5
			v22.6H67.5l-6.4,48.5c1.1-1,2.3-2,3.5-2.9c5.6-4.3,12.3-7.9,20.3-10.6c7.9-2.7,16.9-4.1,26.9-4.1c13.8,0,25.4,2.4,35,7.1
			c9.6,4.7,16.8,11.1,21.8,19.1C173.5,168,176,177.1,176,187.2z" />
            <path d="M247.1,74.8h23l-59,169.5h-23L247.1,74.8z" />
            <path
                d="M394.4,183V80.5H359l-94.2,104.8v20h101.8v33.3h27.8v-33.3h28.9V183H394.4z M296.2,183l70.4-78.2V183H296.2z" />
	</g>
</g>
</svg>
