<svg width="25" height="25" viewBox="0 0 25 25" fill="none" xmlns="http://www.w3.org/2000/svg">
<g clip-path="url(#clip0_227_1199)">
<path d="M12.25 15.5C13.9069 15.5 15.25 14.1569 15.25 12.5C15.25 10.8431 13.9069 9.5 12.25 9.5C10.5931 9.5 9.25 10.8431 9.25 12.5C9.25 14.1569 10.5931 15.5 12.25 15.5Z" stroke="black" stroke-linecap="round" stroke-linejoin="round"/>
<path d="M19.65 15.5C19.5169 15.8016 19.4772 16.1362 19.536 16.4606C19.5948 16.785 19.7495 17.0843 19.98 17.32L20.04 17.38C20.226 17.5657 20.3735 17.7863 20.4741 18.0291C20.5748 18.2719 20.6266 18.5322 20.6266 18.795C20.6266 19.0578 20.5748 19.3181 20.4741 19.5609C20.3735 19.8037 20.226 20.0243 20.04 20.21C19.8543 20.396 19.6337 20.5435 19.3909 20.6441C19.1481 20.7448 18.8878 20.7966 18.625 20.7966C18.3622 20.7966 18.1019 20.7448 17.8591 20.6441C17.6163 20.5435 17.3957 20.396 17.21 20.21L17.15 20.15C16.9143 19.9195 16.615 19.7648 16.2906 19.706C15.9662 19.6472 15.6316 19.6869 15.33 19.82C15.0342 19.9468 14.782 20.1572 14.6043 20.4255C14.4266 20.6938 14.3313 21.0082 14.33 21.33V21.5C14.33 22.0304 14.1193 22.5391 13.7442 22.9142C13.3691 23.2893 12.8604 23.5 12.33 23.5C11.7996 23.5 11.2909 23.2893 10.9158 22.9142C10.5407 22.5391 10.33 22.0304 10.33 21.5V21.41C10.3223 21.079 10.2151 20.758 10.0225 20.4887C9.8299 20.2194 9.56074 20.0143 9.25 19.9C8.94838 19.7669 8.61381 19.7272 8.28941 19.786C7.96502 19.8448 7.66568 19.9995 7.43 20.23L7.37 20.29C7.18425 20.476 6.96368 20.6235 6.72088 20.7241C6.47808 20.8248 6.21783 20.8766 5.955 20.8766C5.69217 20.8766 5.43192 20.8248 5.18912 20.7241C4.94632 20.6235 4.72575 20.476 4.54 20.29C4.35405 20.1043 4.20653 19.8837 4.10588 19.6409C4.00523 19.3981 3.95343 19.1378 3.95343 18.875C3.95343 18.6122 4.00523 18.3519 4.10588 18.1091C4.20653 17.8663 4.35405 17.6457 4.54 17.46L4.6 17.4C4.83054 17.1643 4.98519 16.865 5.044 16.5406C5.10282 16.2162 5.06312 15.8816 4.93 15.58C4.80324 15.2842 4.59276 15.032 4.32447 14.8543C4.05618 14.6766 3.74179 14.5813 3.42 14.58H3.25C2.71957 14.58 2.21086 14.3693 1.83579 13.9942C1.46071 13.6191 1.25 13.1104 1.25 12.58C1.25 12.0496 1.46071 11.5409 1.83579 11.1658C2.21086 10.7907 2.71957 10.58 3.25 10.58H3.34C3.67099 10.5723 3.992 10.4651 4.2613 10.2725C4.53059 10.0799 4.73572 9.81074 4.85 9.5C4.98312 9.19838 5.02282 8.86381 4.964 8.53941C4.90519 8.21502 4.75054 7.91568 4.52 7.68L4.46 7.62C4.27405 7.43425 4.12653 7.21368 4.02588 6.97088C3.92523 6.72808 3.87343 6.46783 3.87343 6.205C3.87343 5.94217 3.92523 5.68192 4.02588 5.43912C4.12653 5.19632 4.27405 4.97575 4.46 4.79C4.64575 4.60405 4.86632 4.45653 5.10912 4.35588C5.35192 4.25523 5.61217 4.20343 5.875 4.20343C6.13783 4.20343 6.39808 4.25523 6.64088 4.35588C6.88368 4.45653 7.10425 4.60405 7.29 4.79L7.35 4.85C7.58568 5.08054 7.88502 5.23519 8.20941 5.294C8.53381 5.35282 8.86838 5.31312 9.17 5.18H9.25C9.54577 5.05324 9.79802 4.84276 9.97569 4.57447C10.1534 4.30618 10.2487 3.99179 10.25 3.67V3.5C10.25 2.96957 10.4607 2.46086 10.8358 2.08579C11.2109 1.71071 11.7196 1.5 12.25 1.5C12.7804 1.5 13.2891 1.71071 13.6642 2.08579C14.0393 2.46086 14.25 2.96957 14.25 3.5V3.59C14.2513 3.91179 14.3466 4.22618 14.5243 4.49447C14.702 4.76276 14.9542 4.97324 15.25 5.1C15.5516 5.23312 15.8862 5.27282 16.2106 5.214C16.535 5.15519 16.8343 5.00054 17.07 4.77L17.13 4.71C17.3157 4.52405 17.5363 4.37653 17.7791 4.27588C18.0219 4.17523 18.2822 4.12343 18.545 4.12343C18.8078 4.12343 19.0681 4.17523 19.3109 4.27588C19.5537 4.37653 19.7743 4.52405 19.96 4.71C20.146 4.89575 20.2935 5.11632 20.3941 5.35912C20.4948 5.60192 20.5466 5.86217 20.5466 6.125C20.5466 6.38783 20.4948 6.64808 20.3941 6.89088C20.2935 7.13368 20.146 7.35425 19.96 7.54L19.9 7.6C19.6695 7.83568 19.5148 8.13502 19.456 8.45941C19.3972 8.78381 19.4369 9.11838 19.57 9.42V9.5C19.6968 9.79577 19.9072 10.048 20.1755 10.2257C20.4438 10.4034 20.7582 10.4987 21.08 10.5H21.25C21.7804 10.5 22.2891 10.7107 22.6642 11.0858C23.0393 11.4609 23.25 11.9696 23.25 12.5C23.25 13.0304 23.0393 13.5391 22.6642 13.9142C22.2891 14.2893 21.7804 14.5 21.25 14.5H21.16C20.8382 14.5013 20.5238 14.5966 20.2555 14.7743C19.9872 14.952 19.7768 15.2042 19.65 15.5Z" stroke="black" stroke-linecap="round" stroke-linejoin="round"/>
</g>
<defs>
<clipPath id="clip0_227_1199">
<rect width="24" height="24" fill="white" transform="translate(0.25 0.5)"/>
</clipPath>
</defs>
</svg>
